<svg width="27" height="27" viewBox="0 0 27 27" fill="none" xmlns="http://www.w3.org/2000/svg">
<path d="M18 23.625V20.875C18 18.9894 18 18.0466 17.4142 17.4608C16.8284 16.875 15.8856 16.875 14 16.875H11.875C9.98938 16.875 9.04657 16.875 8.46079 17.4608C7.875 18.0466 7.875 18.9894 7.875 20.875V23.625" stroke="#222222" stroke-width="2"/>
<path d="M7.875 9H13.5" stroke="#222222" stroke-width="2" stroke-linecap="round"/>
<path d="M3.375 9.375C3.375 6.54657 3.375 5.13236 4.25368 4.25368C5.13236 3.375 6.54657 3.375 9.375 3.375H18.2966C18.7053 3.375 18.9097 3.375 19.0935 3.45112C19.2772 3.52724 19.4218 3.67176 19.7108 3.96079L23.0392 7.28921C23.3282 7.57824 23.4728 7.72276 23.5489 7.90653C23.625 8.0903 23.625 8.29468 23.625 8.70343V17.625C23.625 20.4534 23.625 21.8676 22.7463 22.7463C21.8676 23.625 20.4534 23.625 17.625 23.625H9.375C6.54657 23.625 5.13236 23.625 4.25368 22.7463C3.375 21.8676 3.375 20.4534 3.375 17.625V9.375Z" stroke="#222222" stroke-width="2"/>
</svg>
